<svg width="1024" height="1024" viewBox="0 0 1024 1024" fill="none" xmlns="http://www.w3.org/2000/svg" role="img" aria-labelledby="title desc">
  <title id="title">nano-use logo</title>
  <desc id="desc">A compact n mark with a cursor, representing lightweight action-oriented automation.</desc>
  <defs>
    <linearGradient id="bg" x1="128" y1="128" x2="896" y2="896" gradientUnits="userSpaceOnUse">
      <stop offset="0" stop-color="#020617"/>
      <stop offset="1" stop-color="#111827"/>
    </linearGradient>
    <linearGradient id="green" x1="310" y1="290" x2="790" y2="784" gradientUnits="userSpaceOnUse">
      <stop offset="0" stop-color="#34D399"/>
      <stop offset="1" stop-color="#10B981"/>
    </linearGradient>
    <filter id="shadow" x="72" y="72" width="880" height="880" color-interpolation-filters="sRGB">
      <feDropShadow dx="0" dy="28" stdDeviation="30" flood-color="#020617" flood-opacity="0.28"/>
    </filter>
  </defs>
  <rect x="128" y="128" width="768" height="768" rx="176" fill="url(#bg)" filter="url(#shadow)"/>
  <path d="M326 690V350C326 329 343 312 364 312H402C423 312 440 329 440 350V386C477 335 528 309 593 309C681 309 738 370 738 470V690H624V496C624 441 596 410 550 410C498 410 440 454 440 541V690H326Z" fill="#F9FAFB"/>
  <path d="M646 570L800 718L725 735L765 826L707 852L669 762L610 817L646 570Z" fill="url(#green)" stroke="#ECFDF5" stroke-width="18" stroke-linejoin="round"/>
  <circle cx="316" cy="316" r="30" fill="#34D399"/>
  <circle cx="380" cy="316" r="14" fill="#6EE7B7"/>
</svg>
